<?xml version="1.0" encoding="UTF-8" standalone="no"?>
<!-- Created with Inkscape (http://www.inkscape.org/) -->

<svg
   xmlns:dc="http://purl.org/dc/elements/1.1/"
   xmlns:cc="http://creativecommons.org/ns#"
   xmlns:rdf="http://www.w3.org/1999/02/22-rdf-syntax-ns#"
   xmlns:svg="http://www.w3.org/2000/svg"
   xmlns="http://www.w3.org/2000/svg"
   xmlns:sodipodi="http://sodipodi.sourceforge.net/DTD/sodipodi-0.dtd"
   xmlns:inkscape="http://www.inkscape.org/namespaces/inkscape"
   width="210mm"
   height="297mm"
   id="svg2"
   version="1.1"
   inkscape:version="0.48.4 r9939"
   sodipodi:docname="logoUser.svg"
   inkscape:export-filename="C:\xampp\htdocs\GerenSoft\Views\images\logoUser.png"
   inkscape:export-xdpi="90"
   inkscape:export-ydpi="90">
  <defs
     id="defs4">
    <clipPath
       clipPathUnits="userSpaceOnUse"
       id="clipPath3812">
      <rect
         style="fill:#6b98f2;fill-opacity:1;stroke:none"
         id="rect3814"
         width="918.76056"
         height="409.7608"
         x="-253.95833"
         y="-83.720673" />
    </clipPath>
  </defs>
  <sodipodi:namedview
     id="base"
     pagecolor="#ffffff"
     bordercolor="#666666"
     borderopacity="1.0"
     inkscape:pageopacity="0.0"
     inkscape:pageshadow="2"
     inkscape:zoom="2.8"
     inkscape:cx="399.48012"
     inkscape:cy="590.81816"
     inkscape:document-units="px"
     inkscape:current-layer="g3820"
     showgrid="false"
     inkscape:window-width="1366"
     inkscape:window-height="705"
     inkscape:window-x="-8"
     inkscape:window-y="-8"
     inkscape:window-maximized="1"
     showguides="true"
     inkscape:guide-bbox="true">
    <sodipodi:guide
       orientation="1,0"
       position="-84.821428,663.39285"
       id="guide4579" />
  </sodipodi:namedview>
  <metadata
     id="metadata7">
    <rdf:RDF>
      <cc:Work
         rdf:about="">
        <dc:format>image/svg+xml</dc:format>
        <dc:type
           rdf:resource="http://purl.org/dc/dcmitype/StillImage" />
        <dc:title></dc:title>
      </cc:Work>
    </rdf:RDF>
  </metadata>
  <g
     inkscape:label="Capa 1"
     inkscape:groupmode="layer"
     id="layer1">
    <g
       id="g3820"
       transform="matrix(0.19861235,0,0,0.19861235,494.3771,373.4758)">
      <path
         transform="matrix(0.82125367,0,0,0.82125367,-565.30576,135.37205)"
         d="m 442.85715,295.21933 a 234.28572,234.28572 0 1 1 -468.571444,0 234.28572,234.28572 0 1 1 468.571444,0 z"
         sodipodi:ry="234.28572"
         sodipodi:rx="234.28572"
         sodipodi:cy="295.21933"
         sodipodi:cx="208.57143"
         id="path2996"
         style="fill:#3990fe;fill-opacity:1;stroke:none"
         sodipodi:type="arc" />
      <path
         style="opacity:0.11836733;fill:#ffffff;fill-opacity:1;stroke:none"
         d="m -201.6077,377.82201 c 0,106.264 -86.144,192.40801 -192.40801,192.40801 0.23409,-202.96138 0.23409,-224.52508 0,-384.81602 106.26401,0 192.40801,86.144 192.40801,192.40801 z"
         id="path2996-17"
         inkscape:connector-curvature="0"
         sodipodi:nodetypes="sccs" />
      <path
         style="fill:#f4f4f5;fill-opacity:1;stroke:#f2f2f2;stroke-width:2.23667645px;stroke-linecap:butt;stroke-linejoin:miter;stroke-opacity:1"
         d="m -503.64939,301.11264 c 0,0 0,9.64493 0,39.82163 14.27953,14.424 47.09888,20.9482 80.4525,20.05215 31.85467,-0.85578 64.27422,-8.54051 78.26926,-20.05215 0,-33.44979 0,-41.23375 0,-41.23375 z"
         id="path4538-0"
         inkscape:connector-curvature="0"
         sodipodi:nodetypes="ccsccc" />
      <path
         sodipodi:type="arc"
         style="fill:#f4f4f5;fill-opacity:1;stroke:#f4f4f5;stroke-width:1;stroke-linecap:round;stroke-miterlimit:4;stroke-opacity:1;stroke-dasharray:none"
         id="path4528-3"
         sodipodi:cx="126.96429"
         sodipodi:cy="410.04077"
         sodipodi:rx="28.75"
         sodipodi:ry="6.25"
         d="m 155.71429,410.04077 a 28.75,6.25 0 1 1 -57.500003,0 28.75,6.25 0 1 1 57.500003,0 z"
         transform="matrix(2.7662132,0,0,3.1289934,-775.54642,-981.63565)" />
      <path
         style="fill:#f4f4f5;fill-opacity:1;stroke:#f2f2f2;stroke-width:2.23667645px;stroke-linecap:butt;stroke-linejoin:miter;stroke-opacity:1"
         d="m -503.78972,347.75472 c 0,0 0,9.64493 0,39.82163 14.12255,14.26543 47.41573,21.16416 80.40789,20.42452 32.22644,-0.72246 64.15774,-8.78038 78.31386,-20.42452 0,-33.44979 0.19969,-40.63465 0.19969,-40.63465 -41.12105,23.91264 -119.72658,25.82716 -158.92144,0.81302 z"
         id="path4538-0-3"
         inkscape:connector-curvature="0"
         sodipodi:nodetypes="ccsccc" />
      <path
         style="fill:#f4f4f5;fill-opacity:1;stroke:#f2f2f2;stroke-width:2.23667645px;stroke-linecap:butt;stroke-linejoin:miter;stroke-opacity:1"
         d="m -503.99664,394.15826 c 0,0 0,9.64494 0,39.82163 27.91733,28.19978 130.07313,23.56497 158.72176,0 0,-33.44979 0.19967,-40.63465 0.19967,-40.63465 -41.12104,23.91263 -119.72657,25.82713 -158.92143,0.81302 z"
         id="path4538-0-3-5"
         inkscape:connector-curvature="0"
         sodipodi:nodetypes="ccccc" />
      <g
         id="g4663"
         transform="translate(-1.2076161,-6.5757209)">
        <path
           transform="matrix(3.2329267,0,0,3.2329267,-1378.1765,-991.32297)"
           d="m 343.75,442.00504 c 0,10.55258 -8.55456,19.10714 -19.10715,19.10714 -10.55258,0 -19.10714,-8.55456 -19.10714,-19.10714 0,-10.55259 8.55456,-19.10715 19.10714,-19.10715 10.55259,0 19.10715,8.55456 19.10715,19.10715 z"
           sodipodi:ry="19.107143"
           sodipodi:rx="19.107143"
           sodipodi:cy="442.00504"
           sodipodi:cx="324.64285"
           id="path4661"
           style="fill:#509dfe;fill-opacity:1;stroke:#f4f4f5;stroke-width:1.70099998;stroke-linecap:round;stroke-miterlimit:4;stroke-opacity:1;stroke-dasharray:none"
           sodipodi:type="arc" />
        <g
           transform="matrix(0.62074824,0,0,0.62074824,-155.97253,204.15737)"
           id="g4657">
          <rect
             style="fill:#f4f4f5;fill-opacity:1;stroke:#f4f4f5;stroke-width:8.56442165;stroke-linecap:round;stroke-miterlimit:4;stroke-opacity:1;stroke-dasharray:none"
             id="rect4653"
             width="24.158741"
             height="81.376816"
             x="-290.22342"
             y="353.80206"
             ry="12.07937" />
          <path
             sodipodi:type="star"
             style="fill:#f4f4f5;fill-opacity:1;stroke:#f4f4f5;stroke-width:1.70099998;stroke-linecap:round;stroke-miterlimit:4;stroke-opacity:1;stroke-dasharray:none"
             id="path4655"
             sodipodi:sides="3"
             sodipodi:cx="434.11304"
             sodipodi:cy="438.18945"
             sodipodi:r1="11.43415"
             sodipodi:r2="6.1744409"
             sodipodi:arg1="0.53284389"
             sodipodi:arg2="1.5800414"
             inkscape:flatsided="false"
             inkscape:rounded="0.07"
             inkscape:randomized="0"
             d="m 443.96202,443.99783 c -0.35249,0.5977 -9.2122,0.37222 -9.90607,0.3658 -0.69386,-0.006 -9.55623,0.0552 -9.89761,-0.54889 -0.34138,-0.60412 4.28375,-8.16411 4.63624,-8.76181 0.35249,-0.5977 4.7303,-8.30355 5.42417,-8.29714 0.69386,0.006 4.92844,7.79189 5.26982,8.39601 0.34138,0.60411 4.82594,8.24833 4.47345,8.84603 z"
             transform="matrix(2.8612608,0,0,2.8612608,-1520.1059,-905.80301)"
             inkscape:transform-center-x="0.030041526"
             inkscape:transform-center-y="-1.5983779" />
        </g>
      </g>
    </g>
  </g>
</svg>
